<?xml version="1.0" encoding="UTF-8"?>
<svg xmlns="http://www.w3.org/2000/svg" width="251" height="58" viewBox="0 0 251 58" fill="none">
  <path d="M0.59 56.5629V3.66574C0.59 1.96487 1.97905 0.589996 3.66575 0.589996H47.6758C49.3767 0.589996 50.7516 1.97904 50.7516 3.66574V25.0967H44.5859V6.74149H7.50688V56.5629H0.59Z" fill="#054627"></path>
  <path d="M47.69 56.8464C46.8396 56.8464 46.0175 56.492 45.4364 55.8684L21.6808 30.412H30.1143L47.2648 48.7814L77.8805 1.97904C78.4475 1.10026 79.4113 0.589996 80.4602 0.589996H92.9899V6.75566H82.1185L50.2697 55.4432C49.7452 56.2369 48.909 56.7472 47.9593 56.8322C47.8743 56.8322 47.7892 56.8322 47.69 56.8322V56.8464Z" fill="#054627"></path>
  <path d="M88.27 56.8464C85.4919 56.8464 83.2241 54.5785 83.2241 51.8004C83.2241 49.0224 85.4919 46.7545 88.27 46.7545C91.0481 46.7545 93.3159 49.0224 93.3159 51.8004C93.3159 54.5785 91.0481 56.8464 88.27 56.8464Z" fill="#054627"></path>
  <path d="M145.193 0.589996V1.27034L148.467 1.63887L142.159 23.1833C141.833 21.7517 141.422 20.15 140.898 18.3925L135.866 1.63887L139.495 1.27034V0.589996H128.155V1.27034L130.367 1.63887L138.063 26.6275H142.202L147.744 8.98097C148.594 6.27375 149.402 4.00592 150.182 1.69556L152.237 1.27034V0.589996H145.193Z" fill="#054627"></path>
  <path d="M115.441 57.144C113.23 57.144 111.374 56.6479 109.871 55.6699C108.354 54.6778 107.221 53.2178 106.441 51.276C105.661 49.3342 105.279 46.9246 105.279 44.0473C105.279 41.17 105.661 38.7463 106.441 36.7903C107.221 34.8342 108.354 33.346 109.871 32.3396C111.388 31.3333 113.244 30.8372 115.441 30.8372C117.128 30.8372 118.616 31.2057 119.906 31.9286C121.196 32.6515 122.217 33.6011 122.996 34.7634C123.776 35.9256 124.229 37.1729 124.371 38.477H122.812C122.585 37.3714 122.16 36.3367 121.55 35.4012C120.941 34.4657 120.119 33.7145 119.098 33.1334C118.078 32.5664 116.873 32.2688 115.456 32.2688C113.542 32.2688 111.955 32.7082 110.679 33.5728C109.403 34.4374 108.454 35.7414 107.816 37.4848C107.178 39.2282 106.852 41.411 106.852 44.0331C106.852 47.9593 107.561 50.8933 108.992 52.8068C110.424 54.7203 112.578 55.6841 115.456 55.6841C116.873 55.6841 118.092 55.4006 119.098 54.8337C120.119 54.2667 120.927 53.5155 121.55 52.58C122.174 51.6445 122.585 50.624 122.812 49.5043H124.371C124.258 50.4681 123.974 51.4178 123.506 52.3249C123.039 53.2462 122.415 54.0541 121.635 54.777C120.856 55.4999 119.949 56.0668 118.914 56.492C117.865 56.9172 116.717 57.1299 115.456 57.1299L115.441 57.144Z" fill="#9D9D9C"></path>
  <path d="M145.32 47.1939L139.991 32.6231L134.661 47.1939L134.109 48.7105L131.146 56.7897H129.658L139.027 31.1915H140.997L150.352 56.7897H148.821L145.859 48.7105L145.306 47.1939H145.32Z" fill="#9D9D9C"></path>
  <path d="M157.609 56.7897V31.1915H165.504C167.304 31.1915 168.891 31.4892 170.28 32.0703C171.669 32.6515 172.747 33.5302 173.54 34.6783C174.32 35.8406 174.717 37.2722 174.717 38.9872C174.717 40.7023 174.334 42.148 173.555 43.3386C172.775 44.5292 171.726 45.4364 170.365 46.06C169.019 46.6837 167.46 46.9955 165.716 46.9955H159.126V56.8039H157.595L157.609 56.7897ZM159.14 45.4647H165.731C167.956 45.4647 169.742 44.8977 171.117 43.7638C172.492 42.6299 173.172 40.9999 173.172 38.8738C173.172 36.7477 172.477 35.1886 171.088 34.1822C169.699 33.1759 167.828 32.6798 165.49 32.6798H159.154V45.4647H159.14Z" fill="#9D9D9C"></path>
  <path d="M180.996 56.7897V31.1915H182.385V56.7897H180.996Z" fill="#9D9D9C"></path>
  <path d="M197.452 56.7897V32.6089H188.664V31.1915H206.92V32.6089H198.841V56.7897H197.438H197.452Z" fill="#9D9D9C"></path>
  <path d="M212.519 48.7105L209.556 56.7897H208.068L217.437 31.1915H219.407L228.762 56.7897H227.231L224.269 48.7105L223.716 47.1939L218.387 32.6231L213.057 47.1939L212.505 48.7105H212.519Z" fill="#9D9D9C"></path>
  <path d="M236.005 56.7897L236.033 31.1915H237.522V55.2731H250.59V56.7897H236.005Z" fill="#9D9D9C"></path>
  <path d="M124.13 18.5484C122.968 16.0254 121.224 14.2112 118.56 13.9844V13.9135C122.543 13.6017 126.766 11.5465 126.766 7.2234C126.766 2.90035 122.699 0.604172 116.079 0.604172H104.471V1.28452L107.263 1.65304V25.5928V26.6559H112.536V25.5928V14.1828L114.506 14.2537C116.363 14.3245 117.1 15.0332 118.375 17.9673L122.174 26.6417H128.07L124.158 18.5484H124.13ZM115.115 12.8079H112.522V1.63887C113.33 1.48296 114.308 1.42626 115.314 1.42626C119.183 1.42626 121.239 3.21218 121.239 7.23758C121.239 11.6173 118.843 12.8079 115.115 12.8079Z" fill="#054627"></path>
</svg>
